<?xml version='1.0' encoding='UTF-8' standalone='no'?>
<!-- Created with Fritzing (http://www.fritzing.org/) -->
<svg xmlns:svg='http://www.w3.org/2000/svg' xmlns='http://www.w3.org/2000/svg' version='1.2' baseProfile='tiny' x='0in' y='0in' width='1.2in' height='0.8in' viewBox='0 0 86.4 57.6' >
<g partID='854421190'><g  gorn="0.1" id="breadboard">
 <g  gorn="0.1.0" id="icon">
  <path  stroke="none" stroke-width="0" d="M0,0L0,26.64A2.16,2.16,0,0,1,0,30.96L0,57.6L86.4,57.6L86.4,0L0,0z" fill="#1F7A34"/>
  <g transform="matrix(1, 0, 0, 1, 27.2, 10.587)">
   <g >
    <g >
     <g >
      <g >
       <polygon  points="2.856,1.562,0,4.418,0,33.563,32,33.563,32,1.562" fill="#2A2A2A"/>
       <rect  x="2.856" opacity="0.2" height="0.139" y="1.562" width="29.144" fill="#FFFFFF"/>
       <polygon  points="4.931,0.940003,0.834998,5.036,0.834998,31.27,31.165,31.27,31.165,0.940003" fill="#333333"/>
       <circle  r="14.739" cy="16.105" cx="16" fill="#1A1A1A"/>
       <circle  r="14.739" cy="14.739" cx="16" fill="#2A2A2A"/>
       <circle  r="12.296" cy="14.653" cx="16" fill="#1A1A1A"/>
       <circle  r="12.296" cy="13.256" cx="16" fill="#2A2A2A"/>
       <circle  r="11.192" cy="13.256" cx="16" fill="#1A1A1A"/>
       <circle  r="11.192" cy="12.357" cx="16" fill="#2A2A2A"/>
       <path  opacity="0.2" d="M27.192,13.395C27.192,7.21397,22.18,2.203,16,2.203c-6.181,0,-11.192,5.011,-11.192,11.192l0,-0.139C4.808,7.075,9.819,2.064,16,2.064c6.18,0,11.192,5.011,11.192,11.192L27.192,13.395z" fill="#FFFFFF"/>
       <rect  x="4.793" height="1.936" y="10.42" width="22.414" fill="#1A1A1A"/>
       <path  d="M11.25,22.315c-0.55,0,-1.225,-0.389,-1.5,-0.865001L5,13.222c-0.275,-0.477,-0.275,-1.256,0,-1.732l4.75,-8.226c0.275,-0.477,0.949997,-0.866002,1.5,-0.866002l9.49997,0c0.549,0,1.225,0.39,1.5,0.866002L27,11.49c0.275,0.477,0.275,1.256,0,1.732l-4.75,8.22802c-0.275,0.477,-0.950998,0.865001,-1.5,0.865001L11.25,22.315z" fill="#1A1A1A"/>
       <rect  x="4.931" opacity="0.2" height="0.139" y="0.940003" width="26.233" fill="#FFFFFF"/>
       <path  opacity="0.2" d="M30.739,14.878c0,-8.14003,-6.6,-14.739,-14.738,-14.739c-8.14097,0,-14.74,6.6,-14.74,14.739l0,-0.139C1.261,6.6,7.86002,0,16,0c8.13902,0,14.738,6.6,14.738,14.739L30.738,14.878z" fill="#FFFFFF"/>
       <path  opacity="0.2" d="M3.704,13.395C3.704,6.604,9.20902,1.099,16,1.099c6.79,0,12.295,5.506,12.295,12.296l0,-0.139C28.295,6.466,22.79,0.959998,16,0.959998c-6.791,0,-12.296,5.506,-12.296,12.296L3.704,13.395z" fill="#FFFFFF"/>
       <path  d="M11.25,20.379c-0.55,0,-1.225,-0.389,-1.5,-0.865001L5,11.287c-0.275,-0.477,-0.275,-1.256,0,-1.732l4.75,-8.226c0.275,-0.477,0.949997,-0.866002,1.5,-0.866002l9.49997,0c0.549,0,1.225,0.39,1.5,0.866002L27,9.55397c0.275,0.477,0.275,1.256,0,1.732l-4.75,8.22802c-0.275,0.477,-0.950998,0.865001,-1.5,0.865001L11.25,20.379z" fill="#333333"/>
       <path  opacity="0.2" d="M27,11.287c0.275,-0.477,0.275,-1.117,0,-1.594l-4.75,-8.226L22.25,1.329L27,9.55397C27.276,10.031,27.276,10.81,27,11.287" fill="#FFFFFF"/>
       <path  opacity="0.2" d="M5,11.287c-0.275,-0.477,-0.275,-1.117,0,-1.594l4.75,-8.226L9.75002,1.329L5,9.55397C4.725,10.031,4.725,10.81,5,11.287" fill="#FFFFFF"/>
       <circle  r="9.22097" cy="10.42" cx="16" fill="#2A2A2A"/>
       <circle  r="2.145" cy="10.42" cx="16" fill="#4A2A2A"/>
       <circle  r="2.145" cy="10.42" cx="16" fill="#4A2A2A"/>
       <circle  r="2.145" cy="10.42" cx="16" fill="#4A2A2A"/>
       <path  opacity="0.2" d="M16,10.361c0.804002,0,1.497,0.448,1.864,1.103c0.174,-0.31,0.281,-0.662,0.281,-1.042c0,-1.185,-0.960998,-2.146,-2.145,-2.146c-1.185,0,-2.145,0.959998,-2.145,2.146c0,0.38,0.107,0.732002,0.281,1.042C14.503,10.809,15.195,10.361,16,10.361z"/>
       <path  d="M16,6.189c-2.337,0,-4.231,1.894,-4.231,4.231s1.894,4.231,4.231,4.231c2.336,0,4.231,-1.895,4.231,-4.231S18.336,6.189,16,6.189zM16,12.566c-1.185,0,-2.145,-0.960998,-2.145,-2.146c0,-1.185,0.959998,-2.146,2.145,-2.146c1.184,0,2.145,0.959998,2.145,2.146C18.145,11.605,17.184,12.566,16,12.566z" fill="#333333"/>
       <path  d="M16,9.21103c1.024,0,1.878,0.718,2.091,1.678c0.035,-0.151,0.055,-0.307,0.055,-0.468c0,-1.185,-0.960998,-2.146,-2.145,-2.146c-1.185,0,-2.145,0.959998,-2.145,2.146c0,0.161,0.021,0.316,0.054,0.467C14.124,9.92902,14.976,9.21103,16,9.21103z" fill="#1A1A1A"/>
       <polygon  points="1.642,28.961,1.642,25.452,0.834998,24.917,0.834998,29.497" fill="#2A2A2A"/>
       <polygon  points="0.834998,24.917,0.834998,25.877,1.642,26.413,1.642,25.452" fill="#1A1A1A"/>
       <polygon  points="30.036,31.27,29.5,30.463,25.991,30.463,25.456,31.27,18.29,31.27,18.29,30.463,13.709,30.463,13.709,31.27,0.834998,31.27,0.834998,32.715,25.456,32.715,25.991,31.911,29.5,31.911,30.036,32.715,31.165,32.715,31.165,31.27" fill="#1A1A1A"/>
       <polygon  points="28.542,33.563,28.542,32.79,26.772,32.79,26.772,33.563,0,33.563,0,35.342,32,35.342,32,33.563" fill="#1A1A1A"/>
       <rect  x="26.772" height="0.772999" y="34.569" width="1.77" fill="#2A2A2A"/>
       <rect  x="26.772" opacity="0.2" height="0.164" y="34.569" width="1.77"/>
       <rect  x="0.834998" height="1.084" y="35.342" width="30.329" fill="#1A1A1A"/>
       <path  opacity="0.2" d="M9.75002,1.467c0.275,-0.477,0.949997,-0.866002,1.5,-0.866002l9.49997,0c0.549,0,1.225,0.39,1.5,0.866002L22.25,1.329c-0.275,-0.477,-0.950998,-0.866002,-1.5,-0.866002l-9.49997,0c-0.55,0,-1.225,0.39,-1.5,0.866002L9.75002,1.467z" fill="#FFFFFF"/>
       <path  opacity="0.2" d="M11.769,10.559c0,-2.337,1.894,-4.231,4.231,-4.231c2.336,0,4.231,1.894,4.231,4.231L20.231,10.42c0,-2.337,-1.895,-4.231,-4.231,-4.231c-2.337,0,-4.231,1.894,-4.231,4.231L11.769,10.559z" fill="#FFFFFF"/>
       <polygon  opacity="0.2" points="0,4.557,2.856,1.701,2.856,1.562,0,4.418" fill="#FFFFFF"/>
       <polygon  opacity="0.2" points="0.834998,5.175,4.931,1.079,4.931,0.940003,0.834998,5.036" fill="#FFFFFF"/>
       <path  opacity="0.05" d="M13.855,10.391c0,1.185,0.959998,2.146,2.145,2.146c1.184,0,2.145,-0.960998,2.145,-2.146l0,0.168c0,1.185,-0.960998,2.146,-2.145,2.146c-1.185,0,-2.145,-0.960998,-2.145,-2.146L13.855,10.391z" fill="#FFFFFF"/>
      </g>
      <g >
       <rect  x="6.596" height="0.723002" y="35.704" width="1.8" fill="#FFA800"/>
       <rect  x="9.43099" height="0.723002" y="35.704" width="1.8" fill="#FFA800"/>
       <rect  x="12.266" height="0.723002" y="35.704" width="1.8" fill="#FFA800"/>
       <rect  x="15.101" height="0.723002" y="35.704" width="1.8" fill="#FFA800"/>
       <rect  x="20.77" height="0.723002" y="35.704" width="1.801" fill="#FFA800"/>
       <rect  x="17.934" height="0.723002" y="35.704" width="1.801" fill="#FFA800"/>
      </g>
      <circle  r="0.7" cy="29.497" cx="29.84"/>
      <path  d="M29.84,29.351c0.289,0,0.535,0.174,0.643,0.423c0.036,-0.0850003,0.058,-0.179,0.058,-0.277c0,-0.388,-0.313,-0.7,-0.7,-0.7s-0.7,0.313,-0.7,0.7c0,0.099,0.021,0.192,0.058,0.277C29.305,29.525,29.551,29.351,29.84,29.351z" fill="#1A1A1A"/>
      <circle  r="0.7" cy="29.497" cx="2.498"/>
      <path  d="M2.498,29.351c0.289,0,0.535,0.174,0.643,0.423c0.036,-0.0850003,0.058,-0.179,0.058,-0.277c0,-0.388,-0.313,-0.7,-0.7,-0.7s-0.7,0.313,-0.7,0.7c0,0.099,0.021,0.192,0.058,0.277C1.962,29.525,2.208,29.351,2.498,29.351z" fill="#1A1A1A"/>
      <path  opacity="0.2" d="M3.704,14.915c0,6.789,5.505,12.295,12.296,12.295c6.79,0,12.295,-5.506,12.295,-12.295l0,-0.262c0,6.789,-5.506,12.295,-12.295,12.295c-6.791,0,-12.296,-5.506,-12.296,-12.295L3.704,14.915z"/>
      <path  opacity="0.2" d="M27.192,13.518c0,6.18,-5.012,11.191,-11.192,11.191c-6.181,0,-11.192,-5.012,-11.192,-11.191l0,-0.262c0,6.18,5.011,11.191,11.192,11.191c6.18,0,11.192,-5.012,11.192,-11.191L27.192,13.518z"/>
      <polygon  opacity="0.2" points="0.834998,32.977,25.456,32.977,25.991,32.172,29.5,32.172,30.036,32.977,31.165,32.977,31.165,32.715,30.036,32.715,29.5,31.911,25.991,31.911,25.456,32.715,0.834998,32.715"/>
      <rect  x="6.596" opacity="0.2" height="0.262" y="35.704" width="1.8"/>
      <rect  x="9.43099" opacity="0.2" height="0.262" y="35.704" width="1.8"/>
      <rect  x="12.266" opacity="0.2" height="0.262" y="35.704" width="1.8"/>
      <rect  x="15.101" opacity="0.2" height="0.262" y="35.704" width="1.8"/>
      <rect  x="20.77" opacity="0.2" height="0.262" y="35.704" width="1.801"/>
      <rect  x="17.934" opacity="0.2" height="0.262" y="35.704" width="1.801"/>
      <g  opacity="0.2">
       <path  d="M27,11.287l-4.75,8.22802c-0.275,0.477,-0.950998,0.865001,-1.5,0.865001l-9.49997,0c-0.55,0,-1.225,-0.389,-1.5,-0.865001L5,11.287c-0.118,-0.205,-0.175,-0.467,-0.191,-0.734998C4.786,10.908,4.843,11.276,5,11.548l4.75,8.22802c0.275,0.477,0.949997,0.865001,1.5,0.865001l9.49997,0c0.549,0,1.225,-0.389,1.5,-0.865001L27,11.548c0.157,-0.272,0.214,-0.64,0.191,-0.996998C27.175,10.819,27.119,11.082,27,11.287z"/>
      </g>
      <g >
       <path  opacity="0.2" d="M20.667,22.52c0.267,-0.123,0.529,-0.25,0.784001,-0.393c-0.231,0.11,-0.475,0.188,-0.7,0.188l-9.49997,0c-0.227,0,-0.472,-0.0779998,-0.704,-0.188c0.255,0.143,0.52,0.271,0.787003,0.394L20.667,22.521z"/>
      </g>
      <g  opacity="0.2">
       <path  d="M27,13.48c0.0760003,-0.131,0.126,-0.286,0.157,-0.449c0.01,-0.156,0.021,-0.312,0.023,-0.47c-0.022,0.242,-0.0740002,0.476,-0.181,0.661l-4.75,8.22802c-0.101,0.174,-0.263,0.326,-0.444,0.462c0.172,-0.104,0.346,-0.205,0.511,-0.318L27,13.48z"/>
       <path  d="M5,13.48l4.686,8.11498c0.166,0.113,0.341,0.215,0.513,0.319c-0.183,-0.136,-0.347,-0.29,-0.448,-0.465L5,13.222c-0.109,-0.189,-0.162,-0.429,-0.183,-0.676c0.002,0.162,0.015,0.321,0.024,0.48C4.873,13.192,4.923,13.348,5,13.48z"/>
      </g>
     </g>
    </g>
   </g>
  </g>
 </g>
 <g transform="matrix(1, 0, 0, 1, 2.45052, 52.8516)">
  <g >
   <g >
    <rect  gorn="0.1.1.0.0" x="0" height="2.2968" y="0" width="2.29896" id="connector0pin" fill="#8D8C8C"/>
    <rect  x="0.56099" height="1.18189" y="0.556952" width="1.18398" fill="#8C8663"/>
    <polygon  points="0,2.2968,0.56099,1.73785,0.56099,0.501957,0,0" fill="#B8AF82"/>
    <polygon  points="1.74297,0.558951,0.56899,0.558951,0,0,2.29896,0" fill="#80795B"/>
    <polygon  points="1.74297,1.73785,1.74297,0.558951,2.29896,0,2.29896,2.2968" fill="#5E5B43"/>
    <polygon  points="0,2.2968,0.56699,1.73785,1.74297,1.73785,2.29896,2.2968" fill="#9A916C"/>
   </g>
  </g>
 </g>
 <g transform="matrix(1, 0, 0, 1, 2.45052, 2.4516)">
  <g >
   <g >
    <rect  gorn="0.1.2.0.0" x="0" height="2.2968" y="0" width="2.29896" id="connector23pin" fill="#8D8C8C"/>
    <rect  x="0.56099" height="1.18189" y="0.556952" width="1.18398" fill="#8C8663"/>
    <polygon  points="0,2.2968,0.56099,1.73785,0.56099,0.501957,0,0" fill="#B8AF82"/>
    <polygon  points="1.74297,0.558951,0.56899,0.558951,0,0,2.29896,0" fill="#80795B"/>
    <polygon  points="1.74297,1.73785,1.74297,0.558951,2.29896,0,2.29896,2.2968" fill="#5E5B43"/>
    <polygon  points="0,2.2968,0.56699,1.73785,1.74297,1.73785,2.29896,2.2968" fill="#9A916C"/>
   </g>
  </g>
 </g>
 <g transform="matrix(1, 0, 0, 1, 9.65052, 52.8516)">
  <g >
   <g >
    <rect  gorn="0.1.3.0.0" x="0" height="2.2968" y="0" width="2.29896" id="connector1pin" fill="#8D8C8C"/>
    <rect  x="0.56099" height="1.18189" y="0.556952" width="1.18398" fill="#8C8663"/>
    <polygon  points="0,2.2968,0.56099,1.73785,0.56099,0.501957,0,0" fill="#B8AF82"/>
    <polygon  points="1.74297,0.558951,0.56899,0.558951,0,0,2.29896,0" fill="#80795B"/>
    <polygon  points="1.74297,1.73785,1.74297,0.558951,2.29896,0,2.29896,2.2968" fill="#5E5B43"/>
    <polygon  points="0,2.2968,0.56699,1.73785,1.74297,1.73785,2.29896,2.2968" fill="#9A916C"/>
   </g>
  </g>
 </g>
 <g transform="matrix(1, 0, 0, 1, 9.65052, 2.4516)">
  <g >
   <g >
    <rect  gorn="0.1.4.0.0" x="0" height="2.2968" y="0" width="2.29896" id="connector22pin" fill="#8D8C8C"/>
    <rect  x="0.56099" height="1.18189" y="0.556952" width="1.18398" fill="#8C8663"/>
    <polygon  points="0,2.2968,0.56099,1.73785,0.56099,0.501957,0,0" fill="#B8AF82"/>
    <polygon  points="1.74297,0.558951,0.56899,0.558951,0,0,2.29896,0" fill="#80795B"/>
    <polygon  points="1.74297,1.73785,1.74297,0.558951,2.29896,0,2.29896,2.2968" fill="#5E5B43"/>
    <polygon  points="0,2.2968,0.56699,1.73785,1.74297,1.73785,2.29896,2.2968" fill="#9A916C"/>
   </g>
  </g>
 </g>
 <g transform="matrix(1, 0, 0, 1, 16.8505, 52.8516)">
  <g >
   <g >
    <rect  gorn="0.1.5.0.0" x="0" height="2.2968" y="0" width="2.29896" id="connector2pin" fill="#8D8C8C"/>
    <rect  x="0.56099" height="1.18189" y="0.556952" width="1.18398" fill="#8C8663"/>
    <polygon  points="0,2.2968,0.56099,1.73785,0.56099,0.501957,0,0" fill="#B8AF82"/>
    <polygon  points="1.74297,0.558951,0.56899,0.558951,0,0,2.29896,0" fill="#80795B"/>
    <polygon  points="1.74297,1.73785,1.74297,0.558951,2.29896,0,2.29896,2.2968" fill="#5E5B43"/>
    <polygon  points="0,2.2968,0.56699,1.73785,1.74297,1.73785,2.29896,2.2968" fill="#9A916C"/>
   </g>
  </g>
 </g>
 <g transform="matrix(1, 0, 0, 1, 16.8505, 2.4516)">
  <g >
   <g >
    <rect  gorn="0.1.6.0.0" x="0" height="2.2968" y="0" width="2.29896" id="connector21pin" fill="#8D8C8C"/>
    <rect  x="0.56099" height="1.18189" y="0.556952" width="1.18398" fill="#8C8663"/>
    <polygon  points="0,2.2968,0.56099,1.73785,0.56099,0.501957,0,0" fill="#B8AF82"/>
    <polygon  points="1.74297,0.558951,0.56899,0.558951,0,0,2.29896,0" fill="#80795B"/>
    <polygon  points="1.74297,1.73785,1.74297,0.558951,2.29896,0,2.29896,2.2968" fill="#5E5B43"/>
    <polygon  points="0,2.2968,0.56699,1.73785,1.74297,1.73785,2.29896,2.2968" fill="#9A916C"/>
   </g>
  </g>
 </g>
 <g transform="matrix(1, 0, 0, 1, 24.0505, 52.8516)">
  <g >
   <g >
    <rect  gorn="0.1.7.0.0" x="0" height="2.2968" y="0" width="2.29896" id="connector3pin" fill="#8D8C8C"/>
    <rect  x="0.56099" height="1.18189" y="0.556952" width="1.18398" fill="#8C8663"/>
    <polygon  points="0,2.2968,0.56099,1.73785,0.56099,0.501957,0,0" fill="#B8AF82"/>
    <polygon  points="1.74297,0.558951,0.56899,0.558951,0,0,2.29896,0" fill="#80795B"/>
    <polygon  points="1.74297,1.73785,1.74297,0.558951,2.29896,0,2.29896,2.2968" fill="#5E5B43"/>
    <polygon  points="0,2.2968,0.56699,1.73785,1.74297,1.73785,2.29896,2.2968" fill="#9A916C"/>
   </g>
  </g>
 </g>
 <g transform="matrix(1, 0, 0, 1, 24.0505, 2.4516)">
  <g >
   <g >
    <rect  gorn="0.1.8.0.0" x="0" height="2.2968" y="0" width="2.29896" id="connector20pin" fill="#8D8C8C"/>
    <rect  x="0.56099" height="1.18189" y="0.556952" width="1.18398" fill="#8C8663"/>
    <polygon  points="0,2.2968,0.56099,1.73785,0.56099,0.501957,0,0" fill="#B8AF82"/>
    <polygon  points="1.74297,0.558951,0.56899,0.558951,0,0,2.29896,0" fill="#80795B"/>
    <polygon  points="1.74297,1.73785,1.74297,0.558951,2.29896,0,2.29896,2.2968" fill="#5E5B43"/>
    <polygon  points="0,2.2968,0.56699,1.73785,1.74297,1.73785,2.29896,2.2968" fill="#9A916C"/>
   </g>
  </g>
 </g>
 <g transform="matrix(1, 0, 0, 1, 31.2505, 52.8516)">
  <g >
   <g >
    <rect  gorn="0.1.9.0.0" x="0" height="2.2968" y="0" width="2.29896" id="connector4pin" fill="#8D8C8C"/>
    <rect  x="0.56099" height="1.18189" y="0.556952" width="1.18398" fill="#8C8663"/>
    <polygon  points="0,2.2968,0.56099,1.73785,0.56099,0.501957,0,0" fill="#B8AF82"/>
    <polygon  points="1.74297,0.558951,0.56899,0.558951,0,0,2.29896,0" fill="#80795B"/>
    <polygon  points="1.74297,1.73785,1.74297,0.558951,2.29896,0,2.29896,2.2968" fill="#5E5B43"/>
    <polygon  points="0,2.2968,0.56699,1.73785,1.74297,1.73785,2.29896,2.2968" fill="#9A916C"/>
   </g>
  </g>
 </g>
 <g transform="matrix(1, 0, 0, 1, 31.2505, 2.4516)">
  <g >
   <g >
    <rect  gorn="0.1.10.0.0" x="0" height="2.2968" y="0" width="2.29896" id="connector19pin" fill="#8D8C8C"/>
    <rect  x="0.56099" height="1.18189" y="0.556952" width="1.18398" fill="#8C8663"/>
    <polygon  points="0,2.2968,0.56099,1.73785,0.56099,0.501957,0,0" fill="#B8AF82"/>
    <polygon  points="1.74297,0.558951,0.56899,0.558951,0,0,2.29896,0" fill="#80795B"/>
    <polygon  points="1.74297,1.73785,1.74297,0.558951,2.29896,0,2.29896,2.2968" fill="#5E5B43"/>
    <polygon  points="0,2.2968,0.56699,1.73785,1.74297,1.73785,2.29896,2.2968" fill="#9A916C"/>
   </g>
  </g>
 </g>
 <g transform="matrix(1, 0, 0, 1, 38.4505, 52.8516)">
  <g >
   <g >
    <rect  gorn="0.1.11.0.0" x="0" height="2.2968" y="0" width="2.29896" id="connector5pin" fill="#8D8C8C"/>
    <rect  x="0.56099" height="1.18189" y="0.556952" width="1.18398" fill="#8C8663"/>
    <polygon  points="0,2.2968,0.56099,1.73785,0.56099,0.501957,0,0" fill="#B8AF82"/>
    <polygon  points="1.74297,0.558951,0.56899,0.558951,0,0,2.29896,0" fill="#80795B"/>
    <polygon  points="1.74297,1.73785,1.74297,0.558951,2.29896,0,2.29896,2.2968" fill="#5E5B43"/>
    <polygon  points="0,2.2968,0.56699,1.73785,1.74297,1.73785,2.29896,2.2968" fill="#9A916C"/>
   </g>
  </g>
 </g>
 <g transform="matrix(1, 0, 0, 1, 38.4505, 2.4516)">
  <g >
   <g >
    <rect  gorn="0.1.12.0.0" x="0" height="2.2968" y="0" width="2.29896" id="connector18pin" fill="#8D8C8C"/>
    <rect  x="0.56099" height="1.18189" y="0.556952" width="1.18398" fill="#8C8663"/>
    <polygon  points="0,2.2968,0.56099,1.73785,0.56099,0.501957,0,0" fill="#B8AF82"/>
    <polygon  points="1.74297,0.558951,0.56899,0.558951,0,0,2.29896,0" fill="#80795B"/>
    <polygon  points="1.74297,1.73785,1.74297,0.558951,2.29896,0,2.29896,2.2968" fill="#5E5B43"/>
    <polygon  points="0,2.2968,0.56699,1.73785,1.74297,1.73785,2.29896,2.2968" fill="#9A916C"/>
   </g>
  </g>
 </g>
 <g transform="matrix(1, 0, 0, 1, 45.6505, 52.8516)">
  <g >
   <g >
    <rect  gorn="0.1.13.0.0" x="0" height="2.2968" y="0" width="2.29896" id="connector6pin" fill="#8D8C8C"/>
    <rect  x="0.56099" height="1.18189" y="0.556952" width="1.18398" fill="#8C8663"/>
    <polygon  points="0,2.2968,0.56099,1.73785,0.56099,0.501957,0,0" fill="#B8AF82"/>
    <polygon  points="1.74297,0.558951,0.56899,0.558951,0,0,2.29896,0" fill="#80795B"/>
    <polygon  points="1.74297,1.73785,1.74297,0.558951,2.29896,0,2.29896,2.2968" fill="#5E5B43"/>
    <polygon  points="0,2.2968,0.56699,1.73785,1.74297,1.73785,2.29896,2.2968" fill="#9A916C"/>
   </g>
  </g>
 </g>
 <g transform="matrix(1, 0, 0, 1, 45.6505, 2.4516)">
  <g >
   <g >
    <rect  gorn="0.1.14.0.0" x="0" height="2.2968" y="0" width="2.29896" id="connector17pin" fill="#8D8C8C"/>
    <rect  x="0.56099" height="1.18189" y="0.556952" width="1.18398" fill="#8C8663"/>
    <polygon  points="0,2.2968,0.56099,1.73785,0.56099,0.501957,0,0" fill="#B8AF82"/>
    <polygon  points="1.74297,0.558951,0.56899,0.558951,0,0,2.29896,0" fill="#80795B"/>
    <polygon  points="1.74297,1.73785,1.74297,0.558951,2.29896,0,2.29896,2.2968" fill="#5E5B43"/>
    <polygon  points="0,2.2968,0.56699,1.73785,1.74297,1.73785,2.29896,2.2968" fill="#9A916C"/>
   </g>
  </g>
 </g>
 <g transform="matrix(1, 0, 0, 1, 52.8505, 52.8516)">
  <g >
   <g >
    <rect  gorn="0.1.15.0.0" x="0" height="2.2968" y="0" width="2.29896" id="connector7pin" fill="#8D8C8C"/>
    <rect  x="0.56099" height="1.18189" y="0.556952" width="1.18398" fill="#8C8663"/>
    <polygon  points="0,2.2968,0.56099,1.73785,0.56099,0.501957,0,0" fill="#B8AF82"/>
    <polygon  points="1.74297,0.558951,0.56899,0.558951,0,0,2.29896,0" fill="#80795B"/>
    <polygon  points="1.74297,1.73785,1.74297,0.558951,2.29896,0,2.29896,2.2968" fill="#5E5B43"/>
    <polygon  points="0,2.2968,0.56699,1.73785,1.74297,1.73785,2.29896,2.2968" fill="#9A916C"/>
   </g>
  </g>
 </g>
 <g transform="matrix(1, 0, 0, 1, 52.8505, 2.4516)">
  <g >
   <g >
    <rect  gorn="0.1.16.0.0" x="0" height="2.2968" y="0" width="2.29896" id="connector16pin" fill="#8D8C8C"/>
    <rect  x="0.56099" height="1.18189" y="0.556952" width="1.18398" fill="#8C8663"/>
    <polygon  points="0,2.2968,0.56099,1.73785,0.56099,0.501957,0,0" fill="#B8AF82"/>
    <polygon  points="1.74297,0.558951,0.56899,0.558951,0,0,2.29896,0" fill="#80795B"/>
    <polygon  points="1.74297,1.73785,1.74297,0.558951,2.29896,0,2.29896,2.2968" fill="#5E5B43"/>
    <polygon  points="0,2.2968,0.56699,1.73785,1.74297,1.73785,2.29896,2.2968" fill="#9A916C"/>
   </g>
  </g>
 </g>
 <g transform="matrix(1, 0, 0, 1, 60.0505, 52.8516)">
  <g >
   <g >
    <rect  gorn="0.1.17.0.0" x="0" height="2.2968" y="0" width="2.29896" id="connector8pin" fill="#8D8C8C"/>
    <rect  x="0.56099" height="1.18189" y="0.556952" width="1.18398" fill="#8C8663"/>
    <polygon  points="0,2.2968,0.56099,1.73785,0.56099,0.501957,0,0" fill="#B8AF82"/>
    <polygon  points="1.74297,0.558951,0.56899,0.558951,0,0,2.29896,0" fill="#80795B"/>
    <polygon  points="1.74297,1.73785,1.74297,0.558951,2.29896,0,2.29896,2.2968" fill="#5E5B43"/>
    <polygon  points="0,2.2968,0.56699,1.73785,1.74297,1.73785,2.29896,2.2968" fill="#9A916C"/>
   </g>
  </g>
 </g>
 <g transform="matrix(1, 0, 0, 1, 60.0505, 2.4516)">
  <g >
   <g >
    <rect  gorn="0.1.18.0.0" x="0" height="2.2968" y="0" width="2.29896" id="connector15pin" fill="#8D8C8C"/>
    <rect  x="0.56099" height="1.18189" y="0.556952" width="1.18398" fill="#8C8663"/>
    <polygon  points="0,2.2968,0.56099,1.73785,0.56099,0.501957,0,0" fill="#B8AF82"/>
    <polygon  points="1.74297,0.558951,0.56899,0.558951,0,0,2.29896,0" fill="#80795B"/>
    <polygon  points="1.74297,1.73785,1.74297,0.558951,2.29896,0,2.29896,2.2968" fill="#5E5B43"/>
    <polygon  points="0,2.2968,0.56699,1.73785,1.74297,1.73785,2.29896,2.2968" fill="#9A916C"/>
   </g>
  </g>
 </g>
 <g transform="matrix(1, 0, 0, 1, 67.2505, 52.8516)">
  <g >
   <g >
    <rect  gorn="0.1.19.0.0" x="0" height="2.2968" y="0" width="2.29896" id="connector9pin" fill="#8D8C8C"/>
    <rect  x="0.56099" height="1.18189" y="0.556952" width="1.18398" fill="#8C8663"/>
    <polygon  points="0,2.2968,0.56099,1.73785,0.56099,0.501957,0,0" fill="#B8AF82"/>
    <polygon  points="1.74297,0.558951,0.56899,0.558951,0,0,2.29896,0" fill="#80795B"/>
    <polygon  points="1.74297,1.73785,1.74297,0.558951,2.29896,0,2.29896,2.2968" fill="#5E5B43"/>
    <polygon  points="0,2.2968,0.56699,1.73785,1.74297,1.73785,2.29896,2.2968" fill="#9A916C"/>
   </g>
  </g>
 </g>
 <g transform="matrix(1, 0, 0, 1, 67.2505, 2.4516)">
  <g >
   <g >
    <rect  gorn="0.1.20.0.0" x="0" height="2.2968" y="0" width="2.29896" id="connector14pin" fill="#8D8C8C"/>
    <rect  x="0.56099" height="1.18189" y="0.556952" width="1.18398" fill="#8C8663"/>
    <polygon  points="0,2.2968,0.56099,1.73785,0.56099,0.501957,0,0" fill="#B8AF82"/>
    <polygon  points="1.74297,0.558951,0.56899,0.558951,0,0,2.29896,0" fill="#80795B"/>
    <polygon  points="1.74297,1.73785,1.74297,0.558951,2.29896,0,2.29896,2.2968" fill="#5E5B43"/>
    <polygon  points="0,2.2968,0.56699,1.73785,1.74297,1.73785,2.29896,2.2968" fill="#9A916C"/>
   </g>
  </g>
 </g>
 <g transform="matrix(1, 0, 0, 1, 74.4509, 52.8516)">
  <g >
   <g >
    <rect  gorn="0.1.21.0.0" x="0" height="2.2968" y="0" width="2.29896" id="connector10pin" fill="#8D8C8C"/>
    <rect  x="0.56099" height="1.18189" y="0.556952" width="1.18398" fill="#8C8663"/>
    <polygon  points="0,2.2968,0.56099,1.73785,0.56099,0.501957,0,0" fill="#B8AF82"/>
    <polygon  points="1.74297,0.558951,0.56899,0.558951,0,0,2.29896,0" fill="#80795B"/>
    <polygon  points="1.74297,1.73785,1.74297,0.558951,2.29896,0,2.29896,2.2968" fill="#5E5B43"/>
    <polygon  points="0,2.2968,0.56699,1.73785,1.74297,1.73785,2.29896,2.2968" fill="#9A916C"/>
   </g>
  </g>
 </g>
 <g transform="matrix(1, 0, 0, 1, 74.4509, 2.4516)">
  <g >
   <g >
    <rect  gorn="0.1.22.0.0" x="0" height="2.2968" y="0" width="2.29896" id="connector13pin" fill="#8D8C8C"/>
    <rect  x="0.56099" height="1.18189" y="0.556952" width="1.18398" fill="#8C8663"/>
    <polygon  points="0,2.2968,0.56099,1.73785,0.56099,0.501957,0,0" fill="#B8AF82"/>
    <polygon  points="1.74297,0.558951,0.56899,0.558951,0,0,2.29896,0" fill="#80795B"/>
    <polygon  points="1.74297,1.73785,1.74297,0.558951,2.29896,0,2.29896,2.2968" fill="#5E5B43"/>
    <polygon  points="0,2.2968,0.56699,1.73785,1.74297,1.73785,2.29896,2.2968" fill="#9A916C"/>
   </g>
  </g>
 </g>
 <g transform="matrix(1, 0, 0, 1, 81.6509, 52.8516)">
  <g >
   <g >
    <rect  gorn="0.1.23.0.0" x="0" height="2.2968" y="0" width="2.29896" id="connector11pin" fill="#8D8C8C"/>
    <rect  x="0.56099" height="1.18189" y="0.556952" width="1.18398" fill="#8C8663"/>
    <polygon  points="0,2.2968,0.56099,1.73785,0.56099,0.501957,0,0" fill="#B8AF82"/>
    <polygon  points="1.74297,0.558951,0.56899,0.558951,0,0,2.29896,0" fill="#80795B"/>
    <polygon  points="1.74297,1.73785,1.74297,0.558951,2.29896,0,2.29896,2.2968" fill="#5E5B43"/>
    <polygon  points="0,2.2968,0.56699,1.73785,1.74297,1.73785,2.29896,2.2968" fill="#9A916C"/>
   </g>
  </g>
 </g>
 <g transform="matrix(1, 0, 0, 1, 81.6509, 2.4516)">
  <g >
   <g >
    <rect  gorn="0.1.24.0.0" x="0" height="2.2968" y="0" width="2.29896" id="connector12pin" fill="#8D8C8C"/>
    <rect  x="0.56099" height="1.18189" y="0.556952" width="1.18398" fill="#8C8663"/>
    <polygon  points="0,2.2968,0.56099,1.73785,0.56099,0.501957,0,0" fill="#B8AF82"/>
    <polygon  points="1.74297,0.558951,0.56899,0.558951,0,0,2.29896,0" fill="#80795B"/>
    <polygon  points="1.74297,1.73785,1.74297,0.558951,2.29896,0,2.29896,2.2968" fill="#5E5B43"/>
    <polygon  points="0,2.2968,0.56699,1.73785,1.74297,1.73785,2.29896,2.2968" fill="#9A916C"/>
   </g>
  </g>
 </g>
</g>
</g></svg>